<svg width="900" height="232" viewBox="0 0 900 232" fill="none" xmlns="http://www.w3.org/2000/svg">
<path d="M159.801 83.3613L120.561 150.529L80.2598 83.3613L29 42L89.8047 66.3926L109.602 100.33L113.844 76.291L120.561 72.0488L132.227 79.8262L125.863 83.3613L132.227 100.33L152.023 66.3926L210 42L159.801 83.3613Z" fill="#F3A847"/>
<path d="M166.871 85.1289L159.094 99.9766L183.486 85.1289L205.404 53.3125L166.871 85.1289Z" fill="#F3A847"/>
<path d="M74.957 85.1289L82.7344 99.9766L58.3418 85.1289L36.4238 53.3125L74.957 85.1289Z" fill="#F3A847"/>
<path d="M153.438 108.461L143.539 126.137L180.305 92.1992L153.438 108.461Z" fill="#F3A847"/>
<path d="M88.0371 108.461L97.9355 126.137L61.1699 92.1992L88.0371 108.461Z" fill="#F3A847"/>
<path d="M97.9355 173.154L113.844 151.236L106.773 184.82L97.9355 173.154Z" fill="#F3A847"/>
<path d="M143.539 173.154L127.631 151.236L134.701 184.82L143.539 173.154Z" fill="#F3A847"/>
<path d="M113.844 190.123L120.207 159.721L126.57 190.123H113.844Z" fill="#F3A847"/>
<path d="M268.44 122.584C274.296 124.216 278.808 127.192 281.976 131.512C285.24 135.832 286.872 141.112 286.872 147.352C286.872 155.992 283.752 162.76 277.512 167.656C271.368 172.552 262.872 175 252.024 175H214.872C212.088 175 209.88 174.232 208.248 172.696C206.712 171.16 205.944 169 205.944 166.216V82.264C205.944 79.48 206.712 77.32 208.248 75.784C209.88 74.248 212.088 73.48 214.872 73.48H250.584C261.144 73.48 269.4 75.832 275.352 80.536C281.4 85.144 284.424 91.624 284.424 99.976C284.424 105.352 282.984 110.008 280.104 113.944C277.32 117.88 273.432 120.76 268.44 122.584ZM224.088 116.248H247.56C260.328 116.248 266.712 111.496 266.712 101.992C266.712 97.192 265.128 93.64 261.96 91.336C258.792 89.032 253.992 87.88 247.56 87.88H224.088V116.248ZM250.008 160.6C256.728 160.6 261.624 159.4 264.696 157C267.768 154.6 269.304 150.856 269.304 145.768C269.304 140.68 267.72 136.888 264.552 134.392C261.48 131.896 256.632 130.648 250.008 130.648H224.088V160.6H250.008ZM334.769 176.152C327.569 176.152 321.233 174.664 315.761 171.688C310.385 168.712 306.209 164.44 303.233 158.872C300.257 153.304 298.769 146.824 298.769 139.432C298.769 132.04 300.257 125.608 303.233 120.136C306.209 114.568 310.385 110.296 315.761 107.32C321.233 104.344 327.569 102.856 334.769 102.856C341.969 102.856 348.257 104.344 353.633 107.32C359.105 110.296 363.281 114.568 366.161 120.136C369.137 125.608 370.625 132.04 370.625 139.432C370.625 146.824 369.137 153.304 366.161 158.872C363.281 164.44 359.105 168.712 353.633 171.688C348.257 174.664 341.969 176.152 334.769 176.152ZM334.625 162.184C340.481 162.184 344.945 160.264 348.017 156.424C351.089 152.584 352.625 146.92 352.625 139.432C352.625 132.04 351.089 126.424 348.017 122.584C344.945 118.648 340.529 116.68 334.769 116.68C329.009 116.68 324.545 118.648 321.377 122.584C318.305 126.424 316.769 132.04 316.769 139.432C316.769 146.92 318.305 152.584 321.377 156.424C324.449 160.264 328.865 162.184 334.625 162.184ZM417.597 176.152C410.397 176.152 404.061 174.664 398.589 171.688C393.213 168.712 389.037 164.44 386.061 158.872C383.085 153.304 381.597 146.824 381.597 139.432C381.597 132.04 383.085 125.608 386.061 120.136C389.037 114.568 393.213 110.296 398.589 107.32C404.061 104.344 410.397 102.856 417.597 102.856C424.797 102.856 431.085 104.344 436.461 107.32C441.933 110.296 446.109 114.568 448.989 120.136C451.965 125.608 453.453 132.04 453.453 139.432C453.453 146.824 451.965 153.304 448.989 158.872C446.109 164.44 441.933 168.712 436.461 171.688C431.085 174.664 424.797 176.152 417.597 176.152ZM417.453 162.184C423.309 162.184 427.773 160.264 430.845 156.424C433.917 152.584 435.453 146.92 435.453 139.432C435.453 132.04 433.917 126.424 430.845 122.584C427.773 118.648 423.357 116.68 417.597 116.68C411.837 116.68 407.373 118.648 404.205 122.584C401.133 126.424 399.597 132.04 399.597 139.432C399.597 146.92 401.133 152.584 404.205 156.424C407.277 160.264 411.693 162.184 417.453 162.184ZM530.953 161.032C532.873 162.856 533.833 164.92 533.833 167.224C533.833 169.432 533.017 171.4 531.385 173.128C529.849 174.856 528.025 175.72 525.913 175.72C523.801 175.72 521.833 174.856 520.009 173.128L486.313 142.6V167.224C486.313 170.008 485.449 172.12 483.721 173.56C481.993 175 479.833 175.72 477.241 175.72C474.649 175.72 472.489 175 470.761 173.56C469.129 172.12 468.313 170.008 468.313 167.224V81.256C468.313 78.472 469.129 76.36 470.761 74.92C472.489 73.48 474.649 72.76 477.241 72.76C479.833 72.76 481.993 73.48 483.721 74.92C485.449 76.36 486.313 78.472 486.313 81.256V135.4L517.129 105.88C518.857 104.152 520.825 103.288 523.033 103.288C525.241 103.288 527.161 104.104 528.793 105.736C530.425 107.368 531.241 109.288 531.241 111.496C531.241 113.704 530.329 115.72 528.505 117.544L505.897 138.568L530.953 161.032ZM570.02 176.152C559.556 176.152 551.108 174.088 544.676 169.96C541.604 168.136 540.068 165.544 540.068 162.184C540.068 160.264 540.596 158.728 541.652 157.576C542.708 156.328 544.004 155.704 545.54 155.704C547.172 155.704 549.428 156.472 552.308 158.008C555.38 159.448 558.164 160.552 560.66 161.32C563.252 162.088 566.516 162.472 570.452 162.472C574.484 162.472 577.604 161.8 579.812 160.456C582.116 159.112 583.268 157.24 583.268 154.84C583.268 153.208 582.788 151.912 581.828 150.952C580.964 149.992 579.332 149.128 576.932 148.36C574.628 147.496 571.076 146.536 566.276 145.48C557.732 143.752 551.588 141.304 547.844 138.136C544.196 134.968 542.372 130.6 542.372 125.032C542.372 120.808 543.62 117.016 546.116 113.656C548.612 110.2 552.02 107.56 556.34 105.736C560.756 103.816 565.748 102.856 571.316 102.856C575.348 102.856 579.236 103.384 582.98 104.44C586.724 105.4 590.084 106.84 593.06 108.76C596.132 110.68 597.668 113.224 597.668 116.392C597.668 118.312 597.14 119.944 596.084 121.288C595.028 122.536 593.732 123.16 592.196 123.16C591.14 123.16 590.084 122.968 589.028 122.584C588.068 122.104 586.82 121.432 585.284 120.568C582.5 119.128 580.1 118.072 578.084 117.4C576.068 116.632 573.572 116.248 570.596 116.248C567.044 116.248 564.212 116.968 562.1 118.408C560.084 119.848 559.076 121.816 559.076 124.312C559.076 126.712 560.132 128.536 562.244 129.784C564.356 131.032 568.436 132.28 574.484 133.528C580.916 134.872 585.956 136.408 589.604 138.136C593.252 139.864 595.844 142.024 597.38 144.616C599.012 147.208 599.828 150.52 599.828 154.552C599.828 161.08 597.092 166.312 591.62 170.248C586.244 174.184 579.044 176.152 570.02 176.152ZM650.295 162.472C655.095 162.76 657.495 164.92 657.495 168.952C657.495 171.256 656.535 173.032 654.615 174.28C652.791 175.432 650.151 175.912 646.695 175.72L642.807 175.432C626.679 174.28 618.615 165.64 618.615 149.512V118.12H611.415C608.823 118.12 606.807 117.544 605.367 116.392C604.023 115.24 603.351 113.56 603.351 111.352C603.351 109.144 604.023 107.464 605.367 106.312C606.807 105.16 608.823 104.584 611.415 104.584H618.615V91.336C618.615 88.744 619.431 86.68 621.063 85.144C622.695 83.608 624.903 82.84 627.687 82.84C630.375 82.84 632.535 83.608 634.167 85.144C635.799 86.68 636.615 88.744 636.615 91.336V104.584H648.855C651.447 104.584 653.415 105.16 654.759 106.312C656.199 107.464 656.919 109.144 656.919 111.352C656.919 113.56 656.199 115.24 654.759 116.392C653.415 117.544 651.447 118.12 648.855 118.12H636.615V150.808C636.615 157.912 639.879 161.704 646.407 162.184L650.295 162.472ZM698.988 176.152C691.788 176.152 685.452 174.664 679.98 171.688C674.604 168.712 670.428 164.44 667.452 158.872C664.476 153.304 662.988 146.824 662.988 139.432C662.988 132.04 664.476 125.608 667.452 120.136C670.428 114.568 674.604 110.296 679.98 107.32C685.452 104.344 691.788 102.856 698.988 102.856C706.188 102.856 712.476 104.344 717.852 107.32C723.324 110.296 727.5 114.568 730.38 120.136C733.356 125.608 734.844 132.04 734.844 139.432C734.844 146.824 733.356 153.304 730.38 158.872C727.5 164.44 723.324 168.712 717.852 171.688C712.476 174.664 706.188 176.152 698.988 176.152ZM698.844 162.184C704.7 162.184 709.164 160.264 712.236 156.424C715.308 152.584 716.844 146.92 716.844 139.432C716.844 132.04 715.308 126.424 712.236 122.584C709.164 118.648 704.748 116.68 698.988 116.68C693.228 116.68 688.764 118.648 685.596 122.584C682.524 126.424 680.988 132.04 680.988 139.432C680.988 146.92 682.524 152.584 685.596 156.424C688.668 160.264 693.084 162.184 698.844 162.184ZM789.016 103.144C791.512 102.952 793.48 103.48 794.92 104.728C796.36 105.976 797.08 107.848 797.08 110.344C797.08 112.936 796.456 114.856 795.208 116.104C793.96 117.352 791.704 118.168 788.44 118.552L784.12 118.984C778.456 119.56 774.28 121.48 771.592 124.744C769 128.008 767.704 132.088 767.704 136.984V167.224C767.704 170.008 766.84 172.168 765.112 173.704C763.384 175.144 761.224 175.864 758.632 175.864C756.04 175.864 753.88 175.144 752.152 173.704C750.52 172.168 749.704 170.008 749.704 167.224V111.496C749.704 108.808 750.52 106.744 752.152 105.304C753.88 103.864 755.992 103.144 758.488 103.144C760.984 103.144 763 103.864 764.536 105.304C766.072 106.648 766.84 108.616 766.84 111.208V116.968C768.664 112.744 771.352 109.48 774.904 107.176C778.552 104.872 782.584 103.576 787 103.288L789.016 103.144ZM859.151 155.704C860.783 155.704 862.079 156.328 863.039 157.576C864.095 158.824 864.623 160.504 864.623 162.616C864.623 165.592 862.847 168.088 859.295 170.104C856.031 171.928 852.335 173.416 848.207 174.568C844.079 175.624 840.143 176.152 836.398 176.152C825.071 176.152 816.095 172.888 809.471 166.36C802.847 159.832 799.535 150.904 799.535 139.576C799.535 132.376 800.975 125.992 803.855 120.424C806.735 114.856 810.767 110.536 815.951 107.464C821.231 104.392 827.183 102.856 833.807 102.856C840.143 102.856 845.663 104.248 850.367 107.032C855.071 109.816 858.719 113.752 861.311 118.84C863.903 123.928 865.199 129.928 865.199 136.84C865.199 140.968 863.375 143.032 859.727 143.032H817.247C817.823 149.656 819.695 154.552 822.863 157.72C826.031 160.792 830.639 162.328 836.687 162.328C839.759 162.328 842.447 161.944 844.751 161.176C847.151 160.408 849.839 159.352 852.815 158.008C855.695 156.472 857.807 155.704 859.151 155.704ZM834.239 115.528C829.343 115.528 825.407 117.064 822.431 120.136C819.551 123.208 817.823 127.624 817.247 133.384H849.791C849.599 127.528 848.159 123.112 845.471 120.136C842.783 117.064 839.039 115.528 834.239 115.528Z" fill="white"/>
</svg>
